<svg width="31" height="35" viewBox="0 0 31 35" fill="none" xmlns="http://www.w3.org/2000/svg">
<path d="M1.00008 27.2485C1 27.1181 1 26.9837 1 26.8449V7.46153C1 5.19992 1 4.06827 1.3512 3.20445C1.66013 2.44461 2.15271 1.8273 2.75901 1.44014C3.44828 1 4.35126 1 6.15587 1H24.8448C26.6494 1 27.5512 1 28.2405 1.44014C28.8468 1.8273 29.3402 2.44461 29.6491 3.20445C30 4.06743 30 5.19771 30 7.4549V26.8508C30 27.8301 30 28.5969 29.9713 29.2219M1.00008 27.2485C1.00132 29.2441 1.02154 30.2888 1.3512 31.0996C1.66013 31.8594 2.15271 32.4788 2.75901 32.866C3.4476 33.3057 4.34949 33.3057 6.15058 33.3057H24.8502C26.6513 33.3057 27.5519 33.3057 28.2405 32.866C28.8468 32.4788 29.3402 31.8594 29.6491 31.0996C29.8478 30.611 29.934 30.0373 29.9713 29.2219M1.00008 27.2485L8.68174 16.0171L8.68401 16.014C9.36532 15.0178 9.70654 14.5189 10.1113 14.3391C10.4668 14.1812 10.8549 14.1848 11.2087 14.349C11.6118 14.536 11.9476 15.0406 12.6192 16.0506L16.9227 22.5227C17.5444 23.4576 17.8571 23.9278 18.2367 24.1165C18.5715 24.283 18.9408 24.3017 19.2863 24.1739C19.6795 24.0285 20.0257 23.5947 20.718 22.7271L21.5189 21.7234C22.2237 20.8401 22.5761 20.3987 22.975 20.2545C23.3254 20.1277 23.7 20.155 24.037 20.3294C24.4208 20.528 24.732 21.0141 25.3547 21.9896L29.9713 29.2219M29.9713 29.2219L30 29.2667M20.3333 13.1146C19.4435 13.1146 18.7222 12.2106 18.7222 11.0955C18.7222 9.98041 19.4435 9.07642 20.3333 9.07642C21.2231 9.07642 21.9444 9.98041 21.9444 11.0955C21.9444 12.2106 21.2231 13.1146 20.3333 13.1146Z" stroke="white" stroke-width="2" stroke-linecap="round" stroke-linejoin="round"/>
</svg>
